<svg width="auto" height="48" viewBox="0 0 329 63" fill="none" xmlns="http://www.w3.org/2000/svg">
<g clip-path="url(#clip0_1_2)">
<mask id="mask0_1_2" style="mask-type:luminance" maskUnits="userSpaceOnUse" x="0" y="0" width="329" height="63">
<path d="M328.116 0.391113H0V62.6091H328.116V0.391113Z" fill="white"/>
</mask>
<g mask="url(#mask0_1_2)">
<path d="M136.748 38.6012C136.761 38.3831 136.761 38.1643 136.748 37.9462C136.716 37.771 136.673 37.5977 136.622 37.4272C136.532 37.1182 136.353 36.8426 136.107 36.6352C135.863 36.3556 135.636 36.0621 135.426 35.7562C134.988 35.1702 134.558 34.5722 134.086 34.0172L128.404 27.3342C127.692 26.386 127.37 25.2013 127.504 24.0232L128.412 18.5832C128.478 18.0098 128.422 17.429 128.248 16.8788C128.073 16.3287 127.784 15.8217 127.4 15.3912L122.518 10.5782C122.146 10.2282 121.663 10.0193 121.153 9.98749C120.643 9.95572 120.138 10.1031 119.725 10.4042L118.454 11.3912C117.482 12.0789 116.353 12.5124 115.171 12.6522H115.112C114.562 12.6542 114.021 12.5163 113.539 12.2515C113.057 11.9866 112.651 11.6035 112.358 11.1382L112.266 10.9772C112.011 10.5312 111.651 10.1538 111.218 9.87752C110.785 9.60124 110.291 9.43435 109.779 9.39118C109.355 9.41144 108.947 9.56063 108.61 9.81883C108.272 10.077 108.022 10.4319 107.892 10.8362C107.822 11.1914 107.623 11.5079 107.333 11.7242C107.042 11.9405 106.682 12.041 106.322 12.0062C105.952 11.9016 105.622 11.6871 105.376 11.3911C105.13 11.095 104.98 10.7314 104.946 10.3482C104.837 9.90231 104.591 9.5021 104.241 9.20458C103.892 8.90706 103.457 8.72739 103 8.69118L99.3708 8.24218C98.3768 8.11918 94.8158 7.31418 94.4908 6.31918L93.4768 3.21918C93.2893 2.69408 92.9644 2.22891 92.5358 1.87218C92.2608 1.57289 91.9226 1.33856 91.5458 1.18618C91.0486 1.16486 90.5508 1.21504 90.0678 1.33518C89.5542 1.40171 89.0338 1.39565 88.5218 1.31718C87.9998 1.19118 87.4588 1.14718 86.9338 1.02118C86.5754 0.889499 86.2321 0.719868 85.9098 0.515184C84.9368 0.0371837 83.8558 1.02718 83.7658 2.04718L83.3908 6.30518C83.2998 7.35318 81.2828 9.18418 80.3998 9.68218L78.3688 11.3212C77.4858 11.8212 75.6568 9.70018 74.6578 9.63218L73.4328 9.54918C72.9298 9.53422 72.4394 9.70761 72.0576 10.0354C71.6758 10.3632 71.4302 10.8217 71.3688 11.3212L71.2348 12.3522C71.0998 13.3912 71.2998 15.7412 70.5268 16.4082L69.8038 17.0312C69.018 17.7102 68.3494 18.5139 67.8248 19.4102C67.5108 20.0512 67.7778 20.8102 67.6848 21.0832C67.3968 21.9492 67.5178 22.4572 66.8368 22.7142C66.7393 22.7505 66.6389 22.7789 66.5368 22.7992C65.6641 22.9954 64.8278 23.3282 64.0588 23.7852C63.8337 23.901 63.6258 24.0474 63.4408 24.2202C63.2652 24.4191 63.122 24.6445 63.0168 24.8882C62.4918 25.9642 62.1508 28.4972 60.8298 28.8882C60.3568 29.0026 59.8624 28.9936 59.3938 28.8622C58.3679 28.6224 57.4194 28.1267 56.6368 27.4212C56.275 27.0246 55.8515 26.689 55.3828 26.4272C54.9207 26.2743 54.4232 26.2638 53.955 26.397C53.4868 26.5302 53.0694 26.801 52.7568 27.1742C52.1459 27.9325 51.6926 28.8052 51.4238 29.7412C51.1628 30.4612 50.6558 32.3532 49.6828 32.2762C49.1287 32.2278 48.5931 32.0528 48.1173 31.7647C47.6416 31.4765 47.2384 31.0829 46.9388 30.6142C46.7592 30.2396 46.5193 29.8971 46.2288 29.6002C46.0348 29.4587 45.8122 29.3612 45.5766 29.3146C45.3411 29.268 45.0981 29.2733 44.8648 29.3302C44.3992 29.4476 43.9567 29.6427 43.5558 29.9072C42.3839 30.4619 41.4714 31.4479 41.0088 32.6592C40.4698 34.7052 39.1088 33.9802 37.7088 33.0592C36.8105 32.3615 35.8578 31.7368 34.8598 31.1912C34.3559 30.9238 33.7906 30.793 33.2204 30.812C32.6502 30.8309 32.0949 30.9989 31.6098 31.2992C31.0738 31.6992 30.6938 32.3542 30.0478 32.5312C29.2278 32.7542 28.4608 32.1102 27.6928 31.7462C26.8708 31.3586 25.9373 31.2778 25.0608 31.5182C23.9418 31.8282 23.8868 33.7182 22.8608 34.4032C22.2878 34.7852 21.6488 35.0682 21.1138 35.5032C20.832 35.7026 20.6015 35.966 20.4412 36.2718C20.2809 36.5775 20.1955 36.917 20.1918 37.2622C20.2286 37.5562 20.3091 37.843 20.4308 38.1132C20.849 38.9555 21.1952 39.8316 21.4658 40.7322C21.5908 41.3942 21.1888 41.5152 20.6258 41.8122C19.5807 42.3384 18.4713 42.726 17.3258 42.9652C15.9318 43.2822 13.4258 42.9992 12.9088 44.6862C12.6878 45.2953 12.527 45.9247 12.4288 46.5652C12.382 47.084 12.4573 47.6067 12.6488 48.0912C12.9368 48.8012 13.4808 49.4082 13.7068 50.1312C13.8229 50.5542 13.8134 51.0019 13.6793 51.4195C13.5452 51.8372 13.2924 52.2068 12.9518 52.4832C12.7066 52.7036 12.4013 52.846 12.0748 52.8921C11.7483 52.9383 11.4155 52.8861 11.1188 52.7422L7.08883 51.3282C6.37313 51.2355 5.64895 51.4181 5.06283 51.8392L2.06483 54.5712C1.46892 55.3604 1.08785 56.2907 0.958827 57.2712C0.726827 58.1782 0.645827 59.1312 0.358827 60.0202C0.133827 60.7042 -0.429173 62.4962 0.617827 62.6062H55.9798C55.9368 62.1582 55.9108 61.7062 55.9108 61.2472C55.895 59.3584 56.2534 57.4851 56.9653 55.7355C57.6772 53.9859 58.7285 52.3946 60.0586 51.0534C61.3886 49.7122 62.9711 48.6476 64.7147 47.9211C66.4582 47.1946 68.3284 46.8206 70.2173 46.8206C72.1062 46.8206 73.9764 47.1946 75.72 47.9211C77.4636 48.6476 79.046 49.7122 80.3761 51.0534C81.7061 52.3946 82.7574 53.9859 83.4693 55.7355C84.1812 57.4851 84.5396 59.3584 84.5238 61.2472C84.5238 61.7052 84.4978 62.1582 84.4558 62.6062H113.856C115.017 62.5309 116.113 62.0408 116.944 61.2252L125.944 51.2772C126.794 50.3758 127.695 49.5247 128.644 48.7282L132.891 45.2582C133.682 44.6122 135.129 43.3972 135.246 42.3522C135.26 42.2262 135.487 41.9912 135.552 41.8942C135.85 41.5622 136.102 41.1911 136.3 40.7912C136.312 40.5833 136.341 40.3766 136.386 40.1732C136.452 40.0172 136.471 39.8732 136.523 39.7252C136.61 39.5752 136.688 39.4202 136.757 39.2612C136.774 39.0414 136.771 38.8204 136.748 38.6012Z" fill="#E3B000"/>
<path d="M87.3661 56.5501L107.858 46.5631L85.8451 53.1341L124.767 25.3191L83.6471 50.1081L116.873 15.3911L80.8681 47.6051L93.2261 22.9391L77.6261 45.7391L89.1301 3.89111L74.0721 44.5801L76.0481 15.6201L70.3531 44.1911L66.5741 25.7701L66.6331 44.5801L60.2591 31.4011L63.0761 45.7361L53.0311 32.5471L59.8381 47.6051L44.0401 32.0181L57.0581 50.1081L30.9371 32.5371L54.8601 53.1371L30.2891 44.2711L53.3391 56.5501L14.0201 48.7771L52.6711 59.6061L5.81006 56.6271L52.4231 62.6091H55.9801C55.9371 62.1611 55.9111 61.7091 55.9111 61.2501C55.8953 59.3613 56.2537 57.488 56.9655 55.7384C57.6774 53.9888 58.7287 52.3975 60.0588 51.0563C61.3888 49.7151 62.9713 48.6505 64.7149 47.924C66.4585 47.1975 68.3287 46.8235 70.2176 46.8235C72.1064 46.8235 73.9766 47.1975 75.7202 47.924C77.4638 48.6505 79.0463 49.7151 80.3763 51.0563C81.7064 52.3975 82.7577 53.9888 83.4696 55.7384C84.1815 57.488 84.5399 59.3613 84.5241 61.2501C84.5241 61.7081 84.4981 62.1611 84.4561 62.6091H88.6711L117.222 58.6091L88.1741 59.6021L121.257 51.5911L87.3661 56.5501Z" fill="white"/>
<path d="M170.985 57.5752L157.085 39.2192V58.1092C157.075 58.5203 156.906 58.9115 156.612 59.1994C156.318 59.4874 155.924 59.6495 155.513 59.6512H147.85C147.645 59.656 147.44 59.6196 147.249 59.5443C147.058 59.4689 146.885 59.3559 146.738 59.2122C146.591 59.0685 146.475 58.8968 146.396 58.7074C146.317 58.5179 146.276 58.3145 146.277 58.1092V16.2182C146.276 16.0129 146.317 15.8095 146.396 15.62C146.475 15.4306 146.591 15.2589 146.738 15.1152C146.885 14.9715 147.058 14.8586 147.249 14.7832C147.44 14.7078 147.645 14.6714 147.85 14.6762H155.517C155.928 14.6779 156.322 14.84 156.616 15.128C156.91 15.4159 157.079 15.8071 157.089 16.2182V33.3732L171.637 15.3182C171.958 14.958 172.402 14.7294 172.882 14.6762H181.138C181.414 14.6764 181.684 14.7536 181.918 14.899C182.152 15.0444 182.341 15.2523 182.464 15.4992C182.587 15.7462 182.638 16.0225 182.612 16.297C182.586 16.5716 182.484 16.8334 182.318 17.0532L166.984 36.1352L181.53 54.6002C181.53 54.6002 186.33 60.6842 192.53 61.1462C192.527 61.1462 177.767 66.1042 170.985 57.5752Z" fill="white"/>
<path d="M204.184 14.0331C210.051 13.8556 215.751 16.0036 220.042 20.0091C220.177 20.1148 220.287 20.2488 220.365 20.4016C220.443 20.5544 220.487 20.7224 220.493 20.8938C220.499 21.0652 220.468 21.236 220.402 21.3941C220.335 21.5522 220.235 21.6938 220.108 21.8091L215 27.0121C214.782 27.2284 214.488 27.3498 214.181 27.3498C213.874 27.3498 213.58 27.2284 213.362 27.0121C210.925 24.8549 207.77 23.6861 204.516 23.7351C202.799 23.7443 201.1 24.0958 199.521 24.7691C197.941 25.4424 196.511 26.4239 195.315 27.6562C194.119 28.8886 193.181 30.347 192.556 31.9462C191.93 33.5455 191.63 35.2534 191.672 36.9701C191.646 38.6789 191.961 40.3758 192.599 41.9613C193.236 43.5468 194.184 44.9891 195.386 46.2038C196.588 47.4185 198.021 48.3812 199.6 49.0355C201.178 49.6897 202.872 50.0225 204.581 50.0141C207.788 50.1041 210.916 49.0053 213.362 46.9291C213.607 46.7368 213.912 46.6378 214.224 46.6497C214.535 46.6616 214.832 46.7837 215.062 46.9941L220.173 52.3261C220.385 52.5692 220.496 52.8841 220.484 53.2065C220.472 53.5289 220.338 53.8346 220.108 54.0611C215.813 58.1311 210.1 60.3661 204.184 60.2911C191.078 60.2911 180.528 50.0751 180.528 37.2251C180.552 34.1472 181.184 31.1043 182.387 28.2712C183.59 25.438 185.341 22.8704 187.539 20.7155C189.737 18.5607 192.338 16.8611 195.195 15.7144C198.051 14.5677 201.106 13.9963 204.184 14.0331Z" fill="white"/>
<path d="M233.979 24.121H224.106C223.944 24.1227 223.783 24.0925 223.633 24.032C223.483 23.9716 223.346 23.8821 223.23 23.7687C223.115 23.6553 223.022 23.5202 222.959 23.3711C222.896 23.2221 222.862 23.062 222.861 22.9V15.9C222.862 15.7381 222.896 15.578 222.959 15.4289C223.022 15.2799 223.115 15.1448 223.23 15.0314C223.346 14.918 223.483 14.8285 223.633 14.768C223.783 14.7075 223.944 14.6773 224.106 14.679H254.206C254.368 14.6773 254.529 14.7075 254.679 14.768C254.829 14.8285 254.966 14.918 255.082 15.0314C255.197 15.1448 255.289 15.2799 255.353 15.4289C255.416 15.578 255.449 15.7381 255.451 15.9V22.9C255.449 23.062 255.416 23.2221 255.353 23.3711C255.289 23.5202 255.197 23.6553 255.082 23.7687C254.966 23.8821 254.829 23.9716 254.679 24.032C254.529 24.0925 254.368 24.1227 254.206 24.121H244.334V58.43C244.32 58.7534 244.183 59.0594 243.952 59.2861C243.721 59.5128 243.412 59.6432 243.089 59.651H235.225C234.901 59.6432 234.593 59.5128 234.361 59.2861C234.13 59.0594 233.994 58.7534 233.98 58.43L233.979 24.121Z" fill="white"/>
<path d="M277.824 14.0331C283.691 13.8557 289.39 16.0036 293.681 20.0091C293.816 20.1148 293.927 20.2488 294.004 20.4016C294.082 20.5544 294.126 20.7224 294.132 20.8938C294.139 21.0652 294.107 21.236 294.041 21.3941C293.974 21.5522 293.874 21.6938 293.747 21.8091L288.636 27.0091C288.418 27.2252 288.123 27.3465 287.816 27.3465C287.51 27.3465 287.215 27.2252 286.997 27.0091C284.56 24.8519 281.405 23.6831 278.151 23.7321C276.434 23.7413 274.736 24.0928 273.156 24.7661C271.576 25.4393 270.146 26.4209 268.95 27.6532C267.755 28.8855 266.816 30.344 266.191 31.9432C265.565 33.5425 265.265 35.2504 265.307 36.9671C265.281 38.6759 265.596 40.3727 266.234 41.9583C266.872 43.5438 267.819 44.9861 269.021 46.2008C270.224 47.4155 271.656 48.3782 273.235 49.0325C274.814 49.6867 276.507 50.0194 278.216 50.0111C281.424 50.1033 284.553 49.0055 287 46.9291C287.245 46.7368 287.551 46.6378 287.862 46.6497C288.173 46.6616 288.47 46.7837 288.7 46.9941L293.812 52.3261C294.024 52.5695 294.135 52.8844 294.123 53.2067C294.11 53.529 293.976 53.8346 293.746 54.0611C289.452 58.1306 283.74 60.3655 277.824 60.2911C264.717 60.2911 254.167 50.0751 254.167 37.2251C254.191 34.1472 254.823 31.1043 256.026 28.2711C257.23 25.4379 258.98 22.8703 261.178 20.7155C263.376 18.5606 265.978 16.8611 268.835 15.7144C271.691 14.5676 274.746 13.9963 277.824 14.0331Z" fill="white"/>
<path d="M297.907 55.3461C297.628 55.1177 297.445 54.7918 297.397 54.4342C297.348 54.0766 297.437 53.7138 297.645 53.4191L300.659 48.2191C300.777 48.0436 300.929 47.8938 301.106 47.7788C301.284 47.6638 301.482 47.586 301.691 47.55C301.899 47.514 302.112 47.5206 302.318 47.5694C302.524 47.6183 302.717 47.7083 302.887 47.8341C304.722 49.0551 308.064 51.3681 312.193 51.3681C314.814 51.3681 316.714 49.7621 316.714 47.5131C316.714 44.8131 313.136 43.0801 308.814 41.0241C302.458 38.0041 296.101 34.5341 296.101 26.8241C296.101 20.4631 301.147 14.0381 311.239 14.0381C316.297 14.1681 321.193 15.8505 325.262 18.8571C325.563 19.0961 325.768 19.435 325.84 19.8122C325.912 20.1895 325.846 20.5801 325.655 20.9131L322.313 25.8601C322.154 26.0804 321.954 26.267 321.722 26.409C321.491 26.5511 321.234 26.6458 320.966 26.6877C320.697 26.7295 320.424 26.7177 320.16 26.6529C319.896 26.5881 319.648 26.4716 319.43 26.3101C317.923 25.2821 314.056 22.8411 310.583 22.8411C307.831 22.8411 306.583 24.5111 306.583 26.3741C306.583 28.4951 310.292 30.1651 314.883 32.3501C320.65 35.1121 328.12 38.2601 328.12 46.9991C328.12 53.6161 322.288 60.2991 312.655 60.2991C304.132 60.2911 299.414 56.8241 297.907 55.3461Z" fill="white"/>
</g>
</g>
<defs>
<clipPath id="clip0_1_2">
<rect width="329" height="63" fill="white"/>
</clipPath>
</defs>
</svg>
