<svg width="154" height="151" viewBox="0 0 154 151" fill="none" xmlns="http://www.w3.org/2000/svg">
<g clip-path="url(#clip0_0_3)">
<path d="M24.24 100.62L13.67 86.62V100.99C13.6622 101.304 13.5327 101.603 13.3088 101.823C13.0848 102.043 12.784 102.168 12.47 102.17H6.63C6.47383 102.173 6.3187 102.144 6.17377 102.086C6.02884 102.028 5.89705 101.941 5.78614 101.831C5.67523 101.721 5.58745 101.59 5.52801 101.445C5.46856 101.301 5.43864 101.146 5.43999 100.99V69.16C5.43997 69.0047 5.47089 68.8509 5.53094 68.7076C5.59098 68.5643 5.67895 68.4345 5.78972 68.3255C5.9005 68.2166 6.03184 68.1309 6.17611 68.0733C6.32038 68.0157 6.47467 67.9874 6.63 67.99H12.52C12.8331 67.9899 13.1339 68.1122 13.3581 68.3308C13.5823 68.5494 13.7122 68.847 13.72 69.16V82.22L24.79 68.48C25.0315 68.2055 25.3666 68.0308 25.73 67.99H32.02C32.2298 67.9905 32.4354 68.0494 32.6137 68.1601C32.792 68.2708 32.9359 68.429 33.0293 68.6169C33.1228 68.8048 33.162 69.015 33.1427 69.224C33.1234 69.4329 33.0463 69.6324 32.92 69.8L21.2 84.32L32.27 98.37C32.27 98.37 35.92 103 40.63 103.37C40.63 103.35 29.4 107.13 24.24 100.62Z" fill="#043C72"/>
<path d="M49.52 67.5C53.9834 67.3628 58.3195 68.9987 61.58 72.05C61.6789 72.1335 61.7585 72.2377 61.813 72.3551C61.8675 72.4726 61.8958 72.6005 61.8958 72.73C61.8958 72.8595 61.8675 72.9874 61.813 73.1049C61.7585 73.2223 61.6789 73.3264 61.58 73.41L57.69 77.41C57.5252 77.5737 57.3023 77.6655 57.07 77.6655C56.8377 77.6655 56.6148 77.5737 56.45 77.41C54.5934 75.7723 52.1954 74.8816 49.72 74.91C48.1249 74.9628 46.5657 75.3965 45.1725 76.1751C43.7794 76.9536 42.5928 78.0542 41.7119 79.385C40.8311 80.7158 40.2815 82.2381 40.1091 83.8247C39.9368 85.4113 40.1467 87.0161 40.7213 88.505C41.2959 89.9939 42.2185 91.3236 43.412 92.3831C44.6056 93.4426 46.0353 94.201 47.5818 94.595C49.1283 94.989 50.7467 95.0071 52.3017 94.6479C53.8566 94.2887 55.303 93.5625 56.52 92.53C56.7063 92.3846 56.938 92.3098 57.1741 92.3189C57.4103 92.3281 57.6355 92.4206 57.81 92.58L61.7 96.64C61.8535 96.8285 61.9332 97.0665 61.924 97.3094C61.9148 97.5524 61.8174 97.7837 61.65 97.96C58.3796 101.061 54.0268 102.762 49.52 102.7C44.8522 102.7 40.3756 100.846 37.0749 97.5451C33.7743 94.2444 31.92 89.7678 31.92 85.1C31.92 80.4322 33.7743 75.9556 37.0749 72.6549C40.3756 69.3543 44.8522 67.5 49.52 67.5Z" fill="#043C72"/>
<path d="M72.18 75.18H64.67C64.5424 75.1882 64.4146 75.1702 64.2942 75.1273C64.1738 75.0843 64.0634 75.0173 63.9698 74.9303C63.8762 74.8432 63.8013 74.738 63.7498 74.621C63.6982 74.5041 63.6711 74.3778 63.67 74.25V68.92C63.6711 68.7922 63.6982 68.6659 63.7498 68.549C63.8013 68.432 63.8762 68.3268 63.9698 68.2397C64.0634 68.1527 64.1738 68.0857 64.2942 68.0427C64.4146 67.9998 64.5424 67.9818 64.67 67.99H87.57C87.6934 67.9887 87.8159 68.0117 87.9305 68.0577C88.045 68.1037 88.1494 68.1719 88.2376 68.2582C88.3258 68.3446 88.3962 68.4475 88.4446 68.561C88.4931 68.6746 88.5187 68.7966 88.52 68.92V74.25C88.5187 74.3734 88.4931 74.4954 88.4446 74.609C88.3962 74.7225 88.3258 74.8254 88.2376 74.9118C88.1494 74.9981 88.045 75.0663 87.9305 75.1123C87.8159 75.1583 87.6934 75.1813 87.57 75.18H80.06V101.29C80.0431 101.534 79.937 101.764 79.7619 101.936C79.5868 102.107 79.3548 102.208 79.11 102.22H73.11C72.8565 102.221 72.6122 102.125 72.4265 101.952C72.2409 101.78 72.1277 101.543 72.11 101.29L72.18 75.18Z" fill="#043C72"/>
<path d="M105.52 67.5C109.987 67.3612 114.326 68.9972 117.59 72.05C117.689 72.1335 117.768 72.2377 117.823 72.3551C117.878 72.4726 117.906 72.6005 117.906 72.73C117.906 72.8595 117.878 72.9874 117.823 73.1049C117.768 73.2223 117.689 73.3265 117.59 73.41L113.7 77.41C113.533 77.5743 113.309 77.6664 113.075 77.6664C112.841 77.6664 112.617 77.5743 112.45 77.41C110.597 75.7665 108.197 74.8748 105.72 74.91C104.125 74.9628 102.566 75.3965 101.173 76.1751C99.7794 76.9536 98.5928 78.0542 97.7119 79.385C96.831 80.7158 96.2815 82.2381 96.1091 83.8247C95.9368 85.4113 96.1467 87.0161 96.7213 88.505C97.2959 89.9939 98.2185 91.3236 99.412 92.3831C100.606 93.4426 102.035 94.201 103.582 94.595C105.128 94.989 106.747 95.0071 108.302 94.6479C109.857 94.2887 111.303 93.5625 112.52 92.53C112.707 92.3819 112.941 92.3055 113.179 92.3147C113.418 92.3239 113.645 92.418 113.82 92.58L117.72 96.62C117.874 96.8085 117.953 97.0465 117.944 97.2894C117.935 97.5324 117.837 97.7637 117.67 97.94C114.398 101.054 110.036 102.762 105.52 102.7C100.852 102.7 96.3756 100.846 93.0749 97.5451C89.7743 94.2444 87.92 89.7678 87.92 85.1C87.92 80.4322 89.7743 75.9556 93.0749 72.6549C96.3756 69.3543 100.852 67.5 105.52 67.5Z" fill="#043C72"/>
<path d="M120.83 98.94C120.617 98.7655 120.478 98.5169 120.441 98.2443C120.404 97.9716 120.472 97.695 120.63 97.47L122.93 93.47C123.02 93.3376 123.136 93.2246 123.27 93.1379C123.405 93.0512 123.556 92.9926 123.713 92.9655C123.871 92.9384 124.033 92.9435 124.189 92.9803C124.344 93.0172 124.491 93.0851 124.62 93.18C126.02 94.11 128.56 95.87 131.7 95.87C133.7 95.87 135.15 94.65 135.15 92.93C135.15 90.93 132.42 89.56 129.15 88C124.31 85.7 119.48 83.06 119.48 77.19C119.48 72.35 123.32 67.46 131 67.46C134.849 67.5594 138.574 68.8407 141.67 71.13C141.9 71.3101 142.057 71.5672 142.112 71.8539C142.167 72.1406 142.117 72.4375 141.97 72.69L139.42 76.46C139.174 76.7949 138.806 77.0187 138.395 77.0824C137.985 77.1461 137.566 77.0446 137.23 76.8C136.08 76.02 133.14 74.16 130.5 74.16C128.4 74.16 127.5 75.43 127.5 76.85C127.5 78.46 130.32 79.73 133.81 81.39C138.2 83.5 143.88 85.89 143.88 92.54C143.88 97.54 139.44 102.66 132.11 102.66C125.57 102.7 121.98 100.06 120.83 98.94Z" fill="#043C72"/>
<path d="M142.29 38.21C142.29 38 142.29 37.76 142.29 37.55C142.29 37.34 142.21 37.22 142.16 37.03C142.073 36.7215 141.895 36.4463 141.65 36.24C141.404 35.9623 141.177 35.6683 140.97 35.36C140.53 34.78 140.1 34.18 139.63 33.62L133.94 26.94C133.23 25.9916 132.911 24.8066 133.05 23.63L133.95 18.19C134.02 17.6177 133.967 17.0371 133.795 16.487C133.622 15.9369 133.334 15.4299 132.95 15L128.07 10.18C127.697 9.82846 127.212 9.61892 126.701 9.58786C126.189 9.55679 125.683 9.70618 125.27 10.01L124 11.01C123.029 11.6967 121.901 12.1298 120.72 12.27H120.66C120.111 12.2737 119.57 12.1369 119.089 11.8726C118.607 11.6083 118.202 11.2253 117.91 10.76L117.81 10.6C117.558 10.1524 117.2 9.77332 116.768 9.49611C116.336 9.2189 115.842 9.05199 115.33 9.01C114.906 9.02972 114.498 9.17806 114.16 9.43529C113.823 9.69252 113.572 10.0465 113.44 10.45C113.372 10.8078 113.171 11.1269 112.879 11.3437C112.586 11.5605 112.222 11.6591 111.86 11.62C111.496 11.5092 111.174 11.2918 110.935 10.9958C110.696 10.6999 110.552 10.339 110.52 9.96C110.412 9.50372 110.158 9.09498 109.798 8.79551C109.437 8.49605 108.988 8.32212 108.52 8.3L104.89 7.85C103.89 7.72 100.34 6.92 100.01 5.92L99.01 2.82C98.8202 2.29831 98.4959 1.83603 98.07 1.48C97.7936 1.17675 97.4516 0.940727 97.07 0.789998C96.5721 0.770437 96.0739 0.820932 95.59 0.939999C95.0794 1.01498 94.5606 1.01498 94.05 0.939999C93.53 0.819999 92.99 0.769998 92.46 0.649998C92.1107 0.513197 91.7758 0.342376 91.46 0.14C90.46 -0.34 89.4 0.649999 89.31 1.67L88.94 5.93C88.85 6.93 86.83 8.81 85.94 9.31L83.94 10.95C83.05 11.45 81.23 9.33 80.23 9.26L79 9.18C78.4969 9.16159 78.0053 9.33361 77.6235 9.66171C77.2416 9.98981 76.9976 10.4499 76.94 10.95L76.8 11.95C76.67 12.95 76.87 15.34 76.09 16.01L75.37 16.63C74.5807 17.3116 73.9055 18.1151 73.37 19.01C73.06 19.65 73.37 20.4 73.23 20.68C72.94 21.55 73.07 22.05 72.38 22.31L72.09 22.4C71.2161 22.6014 70.3792 22.9388 69.61 23.4C69.3855 23.5198 69.1772 23.6676 68.99 23.84C68.818 24.0416 68.6765 24.2673 68.57 24.51C68.04 25.58 67.7 28.11 66.38 28.51C65.9115 28.6347 65.4185 28.6347 64.95 28.51C63.9243 28.2676 62.9755 27.7726 62.19 27.07C61.8276 26.674 61.4059 26.3367 60.94 26.07C60.4767 25.9194 59.9791 25.9103 59.5106 26.0439C59.0422 26.1775 58.6241 26.4477 58.31 26.82C57.6982 27.5784 57.2459 28.4526 56.98 29.39C56.72 30.11 56.21 32 55.24 31.92C54.6869 31.8632 54.1542 31.6804 53.6827 31.3858C53.2112 31.0911 52.8134 30.6923 52.52 30.22C52.3386 29.8507 52.0988 29.513 51.81 29.22C51.6181 29.0759 51.3962 28.9768 51.1608 28.93C50.9253 28.8833 50.6824 28.8901 50.45 28.95C49.9842 29.0645 49.5413 29.2573 49.14 29.52C47.9452 30.0602 47.0062 31.0422 46.52 32.26C45.98 34.26 44.62 33.59 43.22 32.66C42.324 31.9609 41.3707 31.3387 40.37 30.8C39.8666 30.5318 39.3018 30.3999 38.7317 30.4174C38.1616 30.435 37.6059 30.6013 37.12 30.9C36.58 31.31 36.2 31.96 35.56 32.14C34.74 32.36 33.97 31.72 33.2 31.35C32.3792 30.9606 31.4459 30.879 30.57 31.12C29.45 31.43 29.4 33.32 28.37 34.01C27.7665 34.3436 27.1823 34.7108 26.62 35.11C26.3371 35.3084 26.1058 35.5717 25.9457 35.878C25.7856 36.1842 25.7014 36.5244 25.7 36.87C25.7366 37.1638 25.8175 37.4504 25.94 37.72C26.3459 38.5639 26.6804 39.4403 26.94 40.34C27.07 41 26.66 41.12 26.1 41.42C25.054 41.9437 23.9449 42.3302 22.8 42.57C21.4 42.89 18.9 42.57 18.38 44.29C18.1617 44.9003 18.001 45.5297 17.9 46.17C17.852 46.6869 17.9274 47.2079 18.12 47.69C18.41 48.4 18.95 49.01 19.18 49.69C19.2958 50.1147 19.2856 50.5639 19.1507 50.9829C19.0157 51.4019 18.7619 51.7727 18.42 52.05C18.1744 52.2687 17.8698 52.41 17.5442 52.4563C17.2187 52.5025 16.8868 52.4516 16.59 52.31L12.59 50.89C11.8832 50.8061 11.1704 50.9879 10.59 51.4L7.59001 54.14C6.99304 54.928 6.61369 55.8591 6.49 56.84C6.26 57.75 6.17 58.7 5.88 59.59C5.66 60.27 5.08999 62.07 6.13999 62.18H61.52C61.52 61.73 61.45 61.28 61.45 60.82C61.3995 58.9096 61.7321 57.0085 62.4283 55.2287C63.1245 53.449 64.1701 51.8267 65.5034 50.4577C66.8368 49.0886 68.4308 48.0005 70.1915 47.2575C71.9522 46.5145 73.8439 46.1317 75.755 46.1317C77.666 46.1317 79.5577 46.5145 81.3185 47.2575C83.0792 48.0005 84.6732 49.0886 86.0066 50.4577C87.3399 51.8267 88.3855 53.449 89.0817 55.2287C89.7779 57.0085 90.1105 58.9096 90.06 60.82C90.0619 61.2743 90.0385 61.7283 89.99 62.18H119.4C120.558 62.101 121.65 61.6117 122.48 60.8L131.48 50.8C132.326 49.8942 133.227 49.0425 134.18 48.25L138.43 44.78C139.22 44.13 140.67 42.92 140.78 41.87C140.861 41.703 140.966 41.5482 141.09 41.41C141.384 41.0797 141.63 40.7093 141.82 40.31C141.88 40.1 141.82 39.9 141.91 39.69C141.964 39.5425 142.011 39.3923 142.05 39.24C142.05 39.09 142.25 38.94 142.28 38.78C142.298 38.5906 142.302 38.4 142.29 38.21Z" fill="#043C72"/>
<path d="M92.9 56.16L113.4 46.16L91.4 52.73L130.33 24.92L89.19 49.72L122.41 15L86.41 47.21L98.76 22.55L83.17 45.34L94.67 3.5L79.61 44.19L81.61 15.19L75.91 43.76L72.13 25.34L72.19 44.15L65.82 30.97L68.63 45.3L58.63 32.11L65.44 47.17L49.58 31.62L62.58 49.71L36.52 32.14L60.45 52.74L35.88 43.88L58.93 56.16L19.52 48.38L58.17 59.21L11.31 56.21L57.92 62.21H61.52C61.52 61.76 61.45 61.31 61.45 60.85C61.3995 58.9396 61.7321 57.0385 62.4283 55.2587C63.1245 53.479 64.1701 51.8567 65.5034 50.4877C66.8368 49.1186 68.4308 48.0305 70.1915 47.2875C71.9523 46.5445 73.844 46.1617 75.755 46.1617C77.6661 46.1617 79.5578 46.5445 81.3185 47.2875C83.0792 48.0305 84.6732 49.1186 86.0066 50.4877C87.3399 51.8567 88.3855 53.479 89.0817 55.2587C89.7779 57.0385 90.1105 58.9396 90.06 60.85C90.0619 61.3043 90.0385 61.7583 89.99 62.21H94.21L122.76 58.21L93.71 59.21L126.79 51.21L92.9 56.16Z" fill="#E3B000"/>
<path d="M90.06 60.86C90.1105 58.9496 89.7779 57.0485 89.0817 55.2687C88.3855 53.489 87.3399 51.8667 86.0066 50.4977C84.6732 49.1286 83.0792 48.0405 81.3185 47.2975C79.5577 46.5545 77.666 46.1717 75.755 46.1717C73.8439 46.1717 71.9522 46.5545 70.1915 47.2975C68.4308 48.0405 66.8368 49.1286 65.5034 50.4977C64.1701 51.8667 63.1245 53.489 62.4283 55.2687C61.7321 57.0485 61.3995 58.9496 61.45 60.86C61.45 61.32 61.45 61.77 61.52 62.22H89.99C90.0385 61.7683 90.0619 61.3143 90.06 60.86Z" fill="white"/>
<path d="M5.91 118.14H145.6" stroke="#043C72" stroke-miterlimit="10"/>
<path d="M-7.62939e-06 133.35H3.29V139.24L7.93 133.35H11.84L5.84 140.98L12.39 150.45H8.52L3.24999 142.85V150.45H-0.0400009L-7.62939e-06 133.35Z" fill="#043C72"/>
<path d="M30.46 136.35L28.19 138.53C27.5436 137.771 26.7427 137.159 25.8407 136.735C24.9388 136.311 23.9566 136.084 22.96 136.07C22.1944 136.061 21.4347 136.204 20.7255 136.493C20.0164 136.782 19.3722 137.209 18.8308 137.751C18.2894 138.292 17.8618 138.936 17.5731 139.646C17.2845 140.355 17.1406 141.114 17.15 141.88C17.1377 142.928 17.3961 143.961 17.9 144.88C18.3864 145.76 19.1152 146.482 20 146.96C20.9185 147.466 21.9515 147.727 23 147.72C23.8912 147.729 24.7741 147.548 25.59 147.19C26.5531 146.697 27.4255 146.045 28.17 145.26L30.38 147.56C29.3509 148.629 28.134 149.501 26.79 150.13C25.5702 150.621 24.2646 150.862 22.95 150.84C21.7466 150.885 20.5467 150.684 19.4238 150.249C18.3009 149.814 17.2787 149.154 16.42 148.31C15.5739 147.463 14.9117 146.45 14.4746 145.335C14.0376 144.22 13.8352 143.027 13.88 141.83C13.8492 140.241 14.2464 138.673 15.03 137.29C15.8219 135.939 16.9706 134.832 18.35 134.09C19.7636 133.286 21.3639 132.869 22.99 132.88C24.4058 132.88 25.8047 133.187 27.0907 133.779C28.3766 134.371 29.5193 135.235 30.44 136.31L30.46 136.35Z" fill="#043C72"/>
<path d="M31.63 133.35H41.08V136.56H37.96V150.45H34.66V136.56H31.66L31.63 133.35Z" fill="#043C72"/>
<path d="M59.03 136.35L56.76 138.53C56.1137 137.771 55.3127 137.159 54.4108 136.735C53.5088 136.311 52.5266 136.084 51.53 136.07C50.7644 136.061 50.0047 136.204 49.2956 136.493C48.5864 136.782 47.9422 137.209 47.4008 137.751C46.8594 138.292 46.4318 138.936 46.1431 139.646C45.8545 140.355 45.7106 141.114 45.72 141.88C45.7091 142.926 45.9637 143.959 46.46 144.88C46.9531 145.758 47.6846 146.48 48.57 146.96C49.4886 147.466 50.5215 147.727 51.57 147.72C52.4612 147.729 53.3441 147.548 54.16 147.19C55.1231 146.697 55.9955 146.045 56.74 145.26L58.94 147.56C57.9156 148.63 56.7018 149.502 55.36 150.13C54.137 150.622 52.8279 150.863 51.51 150.84C50.3068 150.884 49.1072 150.683 47.9844 150.248C46.8617 149.813 45.8394 149.153 44.98 148.31C44.1359 147.461 43.4749 146.448 43.038 145.333C42.6011 144.219 42.3976 143.026 42.44 141.83C42.4122 140.24 42.8129 138.672 43.6 137.29C44.3919 135.939 45.5405 134.832 46.92 134.09C48.3336 133.286 49.9339 132.869 51.56 132.88C52.9757 132.88 54.3747 133.187 55.6607 133.779C56.9467 134.371 58.0893 135.235 59.01 136.31L59.03 136.35Z" fill="#043C72"/>
<path d="M70.86 135.67L68.45 137.8C68.1903 137.321 67.8196 136.911 67.369 136.605C66.9183 136.299 66.4009 136.105 65.86 136.04C65.4805 136.023 65.1077 136.144 64.81 136.38C64.6898 136.47 64.5914 136.586 64.5221 136.719C64.4529 136.853 64.4146 137 64.41 137.15C64.4086 137.446 64.5113 137.732 64.7 137.96C65.4346 138.754 66.2304 139.49 67.08 140.16C68.33 141.16 69.08 141.86 69.34 142.16C69.9182 142.709 70.3955 143.356 70.75 144.07C71.027 144.7 71.1668 145.382 71.16 146.07C71.1804 146.72 71.0616 147.367 70.8115 147.967C70.5614 148.567 70.1858 149.107 69.71 149.55C68.6744 150.491 67.308 150.984 65.91 150.92C64.7852 150.945 63.6782 150.636 62.73 150.03C61.7208 149.312 60.9202 148.339 60.41 147.21L63.14 145.56C63.97 147.07 64.91 147.83 65.98 147.83C66.4946 147.848 66.9973 147.673 67.39 147.34C67.5648 147.207 67.707 147.037 67.8058 146.841C67.9046 146.645 67.9573 146.429 67.96 146.21C67.9471 145.787 67.7961 145.379 67.53 145.05C66.9631 144.39 66.326 143.793 65.63 143.27C64.2782 142.259 63.0646 141.076 62.02 139.75C61.5102 139.026 61.2282 138.166 61.21 137.28C61.2062 136.705 61.3246 136.136 61.5573 135.61C61.7901 135.084 62.1318 134.614 62.56 134.23C63.4658 133.382 64.6696 132.926 65.91 132.96C66.7588 132.959 67.5954 133.162 68.35 133.55C69.3086 134.098 70.1592 134.817 70.86 135.67Z" fill="#043C72"/>
<path d="M89 132.92C90.1667 132.905 91.3239 133.131 92.3993 133.583C93.4747 134.036 94.4452 134.705 95.25 135.55C96.9126 137.254 97.8433 139.54 97.8433 141.92C97.8433 144.3 96.9126 146.586 95.25 148.29C94.4158 149.118 93.4264 149.773 92.3385 150.217C91.2506 150.662 90.0857 150.888 88.9105 150.881C87.7353 150.875 86.5729 150.636 85.49 150.18C84.4071 149.723 83.425 149.057 82.6 148.22C81.777 147.388 81.1277 146.401 80.6899 145.316C80.2521 144.231 80.0346 143.07 80.05 141.9C80.0383 140.314 80.4491 138.754 81.24 137.38C82.0241 136.024 83.1511 134.898 84.5079 134.115C85.8647 133.332 87.4036 132.92 88.97 132.92H89ZM89 136.1C88.2546 136.084 87.5142 136.224 86.8256 136.51C86.137 136.795 85.5153 137.221 85 137.76C84.4621 138.314 84.0414 138.97 83.7631 139.69C83.4847 140.41 83.3544 141.179 83.38 141.95C83.34 142.803 83.5 143.653 83.8473 144.432C84.1945 145.212 84.7195 145.9 85.38 146.44C86.3976 147.289 87.6849 147.746 89.01 147.73C89.7467 147.74 90.4774 147.597 91.1557 147.309C91.834 147.022 92.445 146.596 92.95 146.06C94.0079 144.945 94.5976 143.467 94.5976 141.93C94.5976 140.393 94.0079 138.915 92.95 137.8C92.442 137.255 91.8254 136.822 91.1399 136.529C90.4545 136.236 89.7153 136.09 88.97 136.1H89Z" fill="#043C72"/>
<path d="M100.58 137.8H103.75V139.1C104.347 138.576 105.022 138.148 105.75 137.83C106.319 137.602 106.927 137.483 107.54 137.48C108.135 137.467 108.726 137.577 109.276 137.803C109.827 138.028 110.325 138.364 110.74 138.79C111.529 139.701 111.925 140.888 111.84 142.09V150.45H108.7V144.91C108.739 143.906 108.672 142.9 108.5 141.91C108.396 141.462 108.146 141.061 107.79 140.77C107.429 140.503 106.989 140.366 106.54 140.38C105.926 140.372 105.333 140.605 104.89 141.03C104.385 141.509 104.036 142.129 103.89 142.81C103.768 143.661 103.721 144.521 103.75 145.38V150.45H100.58V137.8Z" fill="#043C72"/>
<path d="M114.52 132.92H117.7V150.45H114.52V132.92Z" fill="#043C72"/>
<path d="M121.82 132.62C122.088 132.617 122.353 132.67 122.599 132.775C122.845 132.88 123.067 133.035 123.25 133.23C123.631 133.619 123.844 134.141 123.844 134.685C123.844 135.229 123.631 135.751 123.25 136.14C123.064 136.33 122.841 136.482 122.596 136.585C122.35 136.689 122.086 136.742 121.82 136.742C121.554 136.742 121.29 136.689 121.044 136.585C120.799 136.482 120.576 136.33 120.39 136.14C120.194 135.948 120.039 135.717 119.936 135.462C119.833 135.208 119.783 134.935 119.79 134.66C119.79 134.13 120.001 133.621 120.376 133.246C120.751 132.871 121.26 132.66 121.79 132.66L121.82 132.62ZM120.23 137.83H123.4V150.48H120.23V137.83Z" fill="#043C72"/>
<path d="M126.29 137.8H129.46V139.1C130.056 138.574 130.731 138.145 131.46 137.83C132.029 137.601 132.637 137.482 133.25 137.48C133.845 137.467 134.436 137.577 134.986 137.803C135.537 138.028 136.035 138.364 136.45 138.79C137.239 139.701 137.635 140.888 137.55 142.09V150.45H134.41V144.91C134.449 143.906 134.382 142.9 134.21 141.91C134.106 141.462 133.856 141.061 133.5 140.77C133.139 140.503 132.699 140.366 132.25 140.38C131.636 140.372 131.043 140.605 130.6 141.03C130.095 141.509 129.746 142.129 129.6 142.81C129.478 143.661 129.431 144.521 129.46 145.38V150.45H126.29V137.8Z" fill="#043C72"/>
<path d="M153.25 145.05H143.06C143.169 145.887 143.59 146.651 144.24 147.19C144.931 147.741 145.797 148.025 146.68 147.99C147.248 147.998 147.811 147.891 148.337 147.676C148.863 147.462 149.34 147.143 149.74 146.74L152.42 148C151.811 148.892 150.985 149.615 150.02 150.1C148.982 150.574 147.851 150.806 146.71 150.78C145.816 150.814 144.925 150.665 144.091 150.341C143.257 150.018 142.498 149.527 141.86 148.9C141.244 148.285 140.761 147.551 140.439 146.743C140.118 145.935 139.965 145.07 139.99 144.2C139.962 143.315 140.112 142.432 140.432 141.606C140.751 140.78 141.233 140.026 141.85 139.39C142.455 138.764 143.183 138.271 143.989 137.942C144.795 137.614 145.66 137.456 146.53 137.48C147.428 137.444 148.324 137.596 149.161 137.925C149.997 138.253 150.756 138.752 151.39 139.39C152.019 140.057 152.508 140.843 152.829 141.702C153.15 142.56 153.297 143.474 153.26 144.39L153.25 145.05ZM150.08 142.55C149.878 141.851 149.44 141.243 148.84 140.83C148.214 140.381 147.46 140.146 146.69 140.16C145.852 140.145 145.032 140.408 144.36 140.91C143.84 141.351 143.438 141.915 143.19 142.55H150.08Z" fill="#043C72"/>
</g>
<defs>
<clipPath id="clip0_0_3">
<rect width="153.26" height="150.89" fill="white"/>
</clipPath>
</defs>
</svg>
